<?xml version="1.0" encoding="utf-8"?>
<!-- Generator: Adobe Illustrator 28.0.0, SVG Export Plug-In . SVG Version: 6.00 Build 0)  -->
<svg version="1.1" id="Layer_1" xmlns="http://www.w3.org/2000/svg" xmlns:xlink="http://www.w3.org/1999/xlink" x="0px" y="0px"
	 viewBox="0 0 341.5 95" style="enable-background:new 0 0 341.5 95;" xml:space="preserve">
<style type="text/css">
	.st0{fill:#FFFFFF;}
</style>
<g>
	<g>
		<path class="st0" d="M76.2,9.4c3.4-3.1,1.2-8.8-3.4-8.8H1.9L34,47.4L76.2,9.4z"/>
		<path class="st0" d="M94.7,0.6L56.1,48.8c-6.8,8.5-7.2,20.4-1.1,29.3l12,17.5l61.6-95H94.7z"/>
	</g>
	<g>
		<path class="st0" d="M120.8,94.3l-10.8-33h8.3l7.3,24.3l7.3-24.3h8.3l-10.8,33H120.8z"/>
		<path class="st0" d="M176.8,94.3l-1.7-5.2h-12.3l-1.7,5.2H153l11.2-33h9.6l11.2,33H176.8z M165.2,82.1h7.7L169,69.9L165.2,82.1z"
			/>
		<path class="st0" d="M220.6,75.9v2.8c0,5-1.6,8.9-4.6,11.8c-3.1,2.9-6.9,4.4-11.7,4.4c-5.1,0-9.4-1.7-12.8-5
			c-3.4-3.3-5.1-7.4-5.1-12.2s1.7-8.9,5-12.2c3.4-3.4,7.5-5,12.3-5c6.2,0,11.6,3,14.4,7.6l-6.4,3.7c-1.5-2.3-4.5-3.9-8.1-3.9
			c-2.8,0-5.1,0.9-7,2.8c-1.8,1.8-2.7,4.2-2.7,7.1s0.9,5.2,2.8,7c1.9,1.8,4.4,2.7,7.6,2.7c4.4,0,7.2-1.7,8.5-5.1h-8.8v-6.6H220.6z"
			/>
		<path class="st0" d="M232.5,87.1h13.2v7.3h-20.8v-33h20.5v7.3h-13V74h11.8v7.2h-11.8V87.1z"/>
		<path class="st0" d="M268.3,61.3h7.6v33h-5.7l-12.7-17.9v17.9h-7.6v-33h5.7l12.7,17.9V61.3z"/>
		<path class="st0" d="M285,90.1c-3.3-3.3-4.9-7.4-4.9-12.3c0-4.9,1.6-9,4.9-12.2c3.3-3.3,7.4-5,12.3-5c5.9,0,11.3,2.9,14.2,7.6
			l-6.5,3.8c-1.5-2.6-4.3-4.1-7.6-4.1c-2.9,0-5.3,0.9-7,2.7c-1.7,1.8-2.6,4.2-2.6,7.1c0,3,0.8,5.3,2.6,7.1c1.7,1.8,4.1,2.7,7,2.7
			c3.4,0,6.3-1.6,7.6-4.1l6.5,3.8c-2.8,4.7-8.2,7.6-14.2,7.6C292.4,95,288.3,93.3,285,90.1z"/>
		<path class="st0" d="M341.2,61.3l-11.1,20.3v12.7h-7.6V81.6l-11.1-20.3h8.6l6.3,12.7l6.3-12.7H341.2z"/>
	</g>
</g>
</svg>
