<?xml version="1.0" encoding="utf-8"?>
<!-- Generator: Adobe Illustrator 28.0.0, SVG Export Plug-In . SVG Version: 6.00 Build 0)  -->
<svg version="1.1" id="Layer_1" xmlns="http://www.w3.org/2000/svg" xmlns:xlink="http://www.w3.org/1999/xlink" x="0px" y="0px"
	 viewBox="0 0 341.5 95" style="enable-background:new 0 0 341.5 95;" xml:space="preserve">
<style type="text/css">
	.st0{fill:#FFFFFF;}
</style>
<g>
	<g>
		<path class="st0" d="M81.6,11.1c3.2-2.9,1.2-8.3-3.2-8.3H11.7l30.2,44L81.6,11.1z"/>
		<path class="st0" d="M99,2.8L62.7,48.1c-6.4,8-6.8,19.2-1,27.6L73,92.2l58-89.4H99z"/>
	</g>
	<g>
		<path class="st0" d="M122.9,91.6l-10.1-31h7.8l6.9,22.8l6.9-22.8h7.8l-10.1,31H122.9z"/>
		<path class="st0" d="M175.5,91.6l-1.5-4.9h-11.5l-1.5,4.9h-7.8l10.5-31h9l10.5,31H175.5z M164.6,80.1h7.3l-3.6-11.4L164.6,80.1z"
			/>
		<path class="st0" d="M216.6,74.3V77c0,4.7-1.5,8.3-4.3,11.1c-2.9,2.7-6.5,4.1-10.9,4.1c-4.8,0-8.8-1.5-12-4.7
			c-3.1-3.1-4.7-6.9-4.7-11.4c0-4.5,1.6-8.3,4.7-11.5c3.1-3.1,7-4.7,11.6-4.7c5.8,0,10.9,2.8,13.6,7.1l-6,3.5
			c-1.4-2.1-4.2-3.6-7.6-3.6c-2.6,0-4.8,0.9-6.6,2.6c-1.7,1.7-2.6,4-2.6,6.7s0.9,4.9,2.7,6.6c1.8,1.7,4.1,2.5,7.1,2.5
			c4.1,0,6.7-1.6,7.9-4.8h-8.3v-6.2H216.6z"/>
		<path class="st0" d="M227.7,84.8h12.4v6.8h-19.5v-31h19.3v6.8h-12.2v5.1h11.1v6.7h-11.1V84.8z"/>
		<path class="st0" d="M261.4,60.6h7.1v31h-5.3l-12-16.8v16.8h-7.1v-31h5.3l12,16.8V60.6z"/>
		<path class="st0" d="M277,87.6c-3.1-3.1-4.6-7-4.6-11.5c0-4.6,1.5-8.4,4.6-11.5c3.1-3.1,6.9-4.7,11.6-4.7c5.5,0,10.6,2.7,13.3,7.2
			l-6.1,3.5c-1.4-2.4-4-3.8-7.2-3.8c-2.7,0-5,0.8-6.6,2.5c-1.6,1.7-2.4,3.9-2.4,6.7c0,2.8,0.8,5,2.4,6.7c1.6,1.7,3.9,2.5,6.6,2.5
			c3.1,0,5.9-1.5,7.2-3.8l6.1,3.5c-2.7,4.4-7.7,7.2-13.3,7.2C283.9,92.2,280.1,90.7,277,87.6z"/>
		<path class="st0" d="M329.8,60.6l-10.4,19.1v11.9h-7.1V79.7l-10.4-19.1h8.1l5.9,12l5.9-12H329.8z"/>
	</g>
</g>
</svg>
