<svg xmlns="http://www.w3.org/2000/svg" width="341.5" height="95" viewBox="0 0 341.5 95">
  <defs>
    <style>
      .cls-1 {
        fill: #fff;
      }

      .cls-1, .cls-2 {
        fill-rule: evenodd;
      }

      .cls-2 {
        fill: #23A455;
      }
    </style>
  </defs>
  <path id="NetCraft" class="cls-1" d="M86.342,70.251h8.91V38.835l22.176,31.416h8.118v-46.2h-8.91V55.467L94.46,24.051H86.342v46.2Zm58.608,0.528h5.016a18.375,18.375,0,0,0,7.359-1.386,11.4,11.4,0,0,0,4.983-3.96,10.069,10.069,0,0,0,1.782-5.874h-8.844a3.153,3.153,0,0,1-1.419,2.673,6.235,6.235,0,0,1-3.729,1.023H144.95a5.227,5.227,0,0,1-3.762-1.32,4.606,4.606,0,0,1-1.386-3.5V56.853h24.42v-7a12.369,12.369,0,0,0-3.828-9.5q-3.829-3.564-10.164-3.564h-5.28a15.842,15.842,0,0,0-7.359,1.65,12.182,12.182,0,0,0-4.983,4.62,13.082,13.082,0,0,0-1.782,6.864v8.514a11.739,11.739,0,0,0,1.782,6.435,11.878,11.878,0,0,0,4.983,4.356,16.684,16.684,0,0,0,7.359,1.551h0Zm-5.28-20.394v-0.2a6.35,6.35,0,0,1,1.452-4.356,4.853,4.853,0,0,1,3.828-1.65H150.3a4.717,4.717,0,0,1,3.7,1.551,5.96,5.96,0,0,1,1.386,4.125v0.528H139.67Zm43.3,19.866H189.3V62.595h-5.676a2.674,2.674,0,0,1-2.211-.858,4.287,4.287,0,0,1-.693-2.706V44.973h8.58V37.317h-8.58V27.351h-8.712v9.966h-6.072v7.656h5.808V59.427q0,5.544,2.706,8.184t8.514,2.64h0Zm26.268,0.528h7.128a17.361,17.361,0,0,0,8.844-2.211,15.144,15.144,0,0,0,5.94-6.27,20.1,20.1,0,0,0,2.112-9.405h-8.976a10.917,10.917,0,0,1-2.211,7.128,7.036,7.036,0,0,1-5.709,2.706h-7.128a6.976,6.976,0,0,1-5.742-2.739,11.161,11.161,0,0,1-2.178-7.161V41.475a10.936,10.936,0,0,1,2.244-7.161,7.3,7.3,0,0,1,5.94-2.739h7a7.022,7.022,0,0,1,5.544,2.409,9.318,9.318,0,0,1,2.112,6.369h8.976a18.052,18.052,0,0,0-2.079-8.811,14.8,14.8,0,0,0-5.841-5.907,17.5,17.5,0,0,0-8.712-2.112h-7a18.4,18.4,0,0,0-9.075,2.178,15.044,15.044,0,0,0-6.072,6.171,19.148,19.148,0,0,0-2.145,9.207V53.223a19.386,19.386,0,0,0,2.112,9.207A14.944,14.944,0,0,0,200.29,68.6a17.888,17.888,0,0,0,8.943,2.178h0Zm28.115-.528h8.976V52.5a7.212,7.212,0,0,1,2.178-5.412,7.81,7.81,0,0,1,5.676-2.112h4.488V37.185h-4.488a10.5,10.5,0,0,0-4.917,1.221,9.339,9.339,0,0,0-3.6,3.135V37.317h-8.316V70.251Zm33.33,0.528h4.092a9.7,9.7,0,0,0,4.554-1.221,11.886,11.886,0,0,0,3.894-3.267v3.96h8.316V48.009a10.223,10.223,0,0,0-3.564-8.151,13.859,13.859,0,0,0-9.372-3.069h-5.676a14.03,14.03,0,0,0-9.273,2.937,9.591,9.591,0,0,0-3.531,7.755h8.712a2.759,2.759,0,0,1,1.122-2.31,4.767,4.767,0,0,1,2.97-.858H278.6a4.025,4.025,0,0,1,2.871,1.023,3.5,3.5,0,0,1,1.089,2.673v3.432a17.637,17.637,0,0,0-3.63-1.254,16.359,16.359,0,0,0-3.7-.462h-4.026a13.9,13.9,0,0,0-8.712,2.541,8.047,8.047,0,0,0-3.3,6.7v2.442a8.326,8.326,0,0,0,3.168,6.8,12.777,12.777,0,0,0,8.316,2.574h0Zm1.188-6.864A4.772,4.772,0,0,1,269,63.123a2.425,2.425,0,0,1-1.089-2.046V59.361a2.568,2.568,0,0,1,.99-2.112,4,4,0,0,1,2.574-.792h4.158a16.729,16.729,0,0,1,3.993.462,8.135,8.135,0,0,1,2.937,1.254v1.122a7.151,7.151,0,0,1-2.772,3.366,7.767,7.767,0,0,1-4.356,1.254h-3.564Zm28.248,6.336h8.976V44.973h7.92V37.317h-7.92V35.271a3.882,3.882,0,0,1,.957-2.9,4.3,4.3,0,0,1,3.069-.924h4.62V23.787h-4.752q-6.072,0-9.471,3a10.561,10.561,0,0,0-3.4,8.349v2.178h-5.676v7.656h5.676V70.251Zm35.046,0H341.5V62.595H335.82a2.675,2.675,0,0,1-2.211-.858,4.287,4.287,0,0,1-.693-2.706V44.973h8.58V37.317h-8.58V27.351H324.2v9.966h-6.072v7.656h5.808V59.427q0,5.544,2.706,8.184t8.514,2.64h0Z"/>
  <path class="cls-2" d="M61.4,0V73.045L0,0H6.982L34.295,32.419ZM7.8,22.16L69,95H62.223L35.116,62.786,7.8,95V22.16Z"/>
</svg>
